<?xml version="1.0" encoding="UTF-8" standalone="no"?><!-- Generator: Gravit.io --><svg xmlns="http://www.w3.org/2000/svg" xmlns:xlink="http://www.w3.org/1999/xlink" style="isolation:isolate" viewBox="0 0 512 512" width="240px" height="240px"><defs><clipPath id="_clipPath_ywp4owuZ8C164uCTUiHz4qeXa1KBGEuD"><rect width="512" height="512"/></clipPath></defs><g clip-path="url(#_clipPath_ywp4owuZ8C164uCTUiHz4qeXa1KBGEuD)"><g><ellipse vector-effect="non-scaling-stroke" cx="256.42469189621755" cy="256.4994589316387" rx="253.57530810378233" ry="253.50054106836126" fill="rgb(255,255,255)" stroke-width="2" stroke="rgb(227,39,73)" stroke-linejoin="miter" stroke-linecap="square" stroke-miterlimit="3"/><path d=" M 107.507 50.946 C 147.013 17.748 222.326 -1.213 255.426 2.449 Q 152.339 95.387 255.426 255.95 Q 109.755 200.731 107.507 50.946 Z " fill="rgb(227,39,73)"/><path d=" M 14.97 334.106 C -4.577 286.357 0.378 208.873 13.981 178.485 Q 70.997 305.012 255.426 255.95 Q 158.319 377.739 14.97 334.106 Z " fill="rgb(227,39,73)"/><path d=" M 254.824 508.721 C 203.349 512.418 131.241 483.578 106.592 461.191 Q 244.62 446.434 255.426 255.95 Q 340.946 386.132 254.824 508.721 Z " fill="rgb(227,39,73)"/><path d=" M 496.91 337 C 484.392 387.052 433.117 444.821 404.16 461.264 Q 433.124 325.544 255.426 255.95 Q 407.208 217.004 496.91 337 Z " fill="rgb(227,39,73)"/><path d=" M 405.58 52.576 C 449.258 80.058 490.3 145.973 496.91 178.603 Q 376.924 108.817 255.426 255.95 Q 263.581 100.417 405.58 52.576 Z " fill="rgb(227,39,73)"/></g></g></svg>
